<svg id="Layer_1" data-name="Layer 1" xmlns="http://www.w3.org/2000/svg" viewBox="0 0 30.52 30.78"><defs><style>.cls-1{fill:none;}.cls-2{opacity:0.7;}.cls-3{fill:#fff;}</style></defs><title>icon-social-shelf-forum</title><rect class="cls-1" width="30.52" height="30.78"/><g id="Page-1" class="cls-2"><g id="Download-Logstash"><g id="Group-11"><g id="Group-12"><path id="Fill-4" class="cls-3" d="M24.92,24.4A13.32,13.32,0,0,1,8.78,26.47a0.85,0.85,0,0,0-.95.06,8.08,8.08,0,0,1-4.71,1.73A8.54,8.54,0,0,0,5.69,24.7a0.85,0.85,0,0,0-.14-0.9,13.3,13.3,0,1,1,19.38.6m1.2-20A15,15,0,0,0,3.91,24.51a5.63,5.63,0,0,1-2.36,2.73A1.4,1.4,0,0,0,2,29.88,7.14,7.14,0,0,0,3,30a9.71,9.71,0,0,0,5.39-1.75A15,15,0,0,0,26.12,4.4ZM21.8,18.25H9.23a0.85,0.85,0,1,0,0,1.7H21.8A0.85,0.85,0,1,0,21.8,18.25Zm0-4.1H9.23a0.85,0.85,0,1,0,0,1.7H21.8A0.85,0.85,0,1,0,21.8,14.15Zm0-4.1H9.23a0.85,0.85,0,1,0,0,1.7H21.8A0.85,0.85,0,1,0,21.8,10.05Z"/></g></g></g></g></svg>