<svg id="Layer_1" data-name="Layer 1" xmlns="http://www.w3.org/2000/svg" viewBox="0 0 30.52 30.78"><defs><style>.cls-1{fill:none;}.cls-2{fill:#fff;opacity:0.7;}</style></defs><title>icon-social-shelf-docs</title><rect class="cls-1" width="30.52" height="30.78"/><path class="cls-2" d="M25.4,0.5H5.63A1.63,1.63,0,0,0,4,2.14V27.86A1.63,1.63,0,0,0,5.63,29.5H25.4A1.63,1.63,0,0,0,27,27.86V2.14A1.63,1.63,0,0,0,25.4.5Zm0,27.36H5.63V2.14H25.4V27.86ZM8.61,22.73a0.83,0.83,0,0,1,.82-0.84h6.48a0.84,0.84,0,0,1,0,1.67H9.43A0.83,0.83,0,0,1,8.61,22.73Zm0-4a0.83,0.83,0,0,1,.82-0.84H21.61a0.84,0.84,0,0,1,0,1.67H9.43A0.83,0.83,0,0,1,8.61,18.69Zm0-4a0.83,0.83,0,0,1,.82-0.84H21.61a0.84,0.84,0,0,1,0,1.67H9.43A0.83,0.83,0,0,1,8.61,14.64Zm0-4a0.83,0.83,0,0,1,.82-0.84H21.61a0.84,0.84,0,0,1,0,1.67H9.43A0.83,0.83,0,0,1,8.61,10.59Zm0-4a0.83,0.83,0,0,1,.82-0.84H21.61a0.84,0.84,0,0,1,0,1.67H9.43A0.83,0.83,0,0,1,8.61,6.55Z"/></svg>