<svg id="Layer_1" data-name="Layer 1" xmlns="http://www.w3.org/2000/svg" viewBox="0 0 30.52 30.78"><defs><style>.cls-1{fill:none;}.cls-2{opacity:0.7;}.cls-3{fill:#fff;}</style></defs><title>icon-social-shelf-github</title><rect class="cls-1" width="30.52" height="30.78"/><g id="Page-1" class="cls-2"><g id="Download-Logstash"><g id="Group-11"><g id="Group-16"><path id="Fill-1" class="cls-3" d="M28.51,7.9a15,15,0,0,0-13-7.4,15,15,0,0,0-13,7.4,14.44,14.44,0,0,0-2,7.46A14.36,14.36,0,0,0,3.38,24.1a14.68,14.68,0,0,0,7.39,5.37,0.88,0.88,0,0,0,.78-0.13,0.75,0.75,0,0,0,.25-0.58s0-.39,0-1,0-1.23,0-1.72l-0.45.08a5.71,5.71,0,0,1-1.08.07A8.3,8.3,0,0,1,8.9,26a3,3,0,0,1-1.31-.58,2.45,2.45,0,0,1-.86-1.19l-0.2-.45a4.82,4.82,0,0,0-.61-1,2.37,2.37,0,0,0-.85-0.74L4.93,22a1.45,1.45,0,0,1-.25-0.23,1,1,0,0,1-.18-0.27,0.16,0.16,0,0,1,.1-0.22,1.26,1.26,0,0,1,.57-0.09l0.39,0.06a2.85,2.85,0,0,1,1,.46,3.14,3.14,0,0,1,.95,1,3.43,3.43,0,0,0,1.08,1.21,2.32,2.32,0,0,0,1.28.42,5.66,5.66,0,0,0,1.11-.1,4,4,0,0,0,.88-0.29,3.13,3.13,0,0,1,1-2,13.43,13.43,0,0,1-2-.35,7.94,7.94,0,0,1-1.84-.76,5.26,5.26,0,0,1-1.57-1.3,6.22,6.22,0,0,1-1-2,9.59,9.59,0,0,1-.4-2.9,5.62,5.62,0,0,1,1.54-4,5.15,5.15,0,0,1,.14-3.95,2.76,2.76,0,0,1,1.68.26,11.94,11.94,0,0,1,1.63.74q0.52,0.31.83,0.52a14.23,14.23,0,0,1,7.5,0L20,7.72a10.56,10.56,0,0,1,1.8-.85,2.58,2.58,0,0,1,1.58-.21,5.11,5.11,0,0,1,.16,3.95,5.61,5.61,0,0,1,1.54,4,9.67,9.67,0,0,1-.4,2.91,6,6,0,0,1-1,2,5.45,5.45,0,0,1-1.58,1.29,8,8,0,0,1-1.84.75,13.43,13.43,0,0,1-2,.35,3.43,3.43,0,0,1,1,2.75v4.08a0.77,0.77,0,0,0,.24.58,0.85,0.85,0,0,0,.77.14,14.68,14.68,0,0,0,7.39-5.37,14.35,14.35,0,0,0,2.86-8.74,14.46,14.46,0,0,0-2-7.46"/></g></g></g></g></svg>