<?xml version="1.0" encoding="UTF-8"?>
<svg width="42px" height="37px" viewBox="0 0 42 37" version="1.1" xmlns="http://www.w3.org/2000/svg" xmlns:xlink="http://www.w3.org/1999/xlink">
    <!-- Generator: Sketch 42 (36781) - http://www.bohemiancoding.com/sketch -->
    <title>Capa_1</title>
    <desc>Created with Sketch.</desc>
    <defs></defs>
    <g id="fisher" stroke="none" stroke-width="1" fill="none" fill-rule="evenodd">
        <g id="Enterprise-Edition@2x" transform="translate(-619.000000, -4756.000000)">
            <g id="Capa_1" transform="translate(616.000000, 4750.000000)">
                <path d="M33,6 C28.6,6 25,9.6 25,14 C25,18.4 28.6,22 33,22 C37.4,22 41,18.4 41,14 C41,9.6 37.4,6 33,6 Z M33,21 C29.1,21 26,17.9 26,14 C26,10.1 29.1,7 33,7 C36.9,7 40,10.1 40,14 C40,17.9 36.9,21 33,21 Z" id="Shape" fill="#445D6E"></path>
                <path d="M27,33 L27,37 L43,37 C43.6,37 44,36.5 44,36 L44,30 C44,27.2 41.8,25 39,25 C38.9,26.8 37.8,27 37.3,27 C36.7,27 36.2,26.8 35.5,26.5 C34.7,26.2 33.9,25.8 33,25.8 C32.1,25.8 31.2,26.2 30.5,26.5 C29.8,26.8 29.3,27 28.7,27 C28.2,27 27.1,26.8 27,25 C25.2,25 23.7,25.9 22.8,27.3 C25.2,28 27,30.3 27,33 Z" id="Shape"></path>
                <path d="M0,0 L0,48 L48,48 L48,0 L0,0 Z M45,36 C45,37.1 44.1,38 43,38 L27,38 L27,41 C27,42.1 26.1,43 25,43 L5,43 C3.9,43 3,42.1 3,41 L3,33 C3,29.7 5.7,27 9,27 L10.2,27 C10.8,29.3 12.7,31 15,31 C17.3,31 19.2,29.3 19.8,27 L21,27 C21.3,27 21.5,27 21.8,27.1 C22.8,25.3 24.8,24 27,24 L28.1,24 C28.1,24.3 28,24.5 28,24.8 C28,25.7 28.2,26 28.7,26 C29.6,26 31.2,24.8 33,24.8 C34.8,24.8 36.4,26 37.3,26 C37.7,26 38,25.7 38,24.8 C38,24.5 38,24.2 37.9,24 L39,24 C42.3,24 45,26.7 45,30 L45,36 Z" id="Shape"></path>
                <path d="M39,24 L37.9,24 C37.9,24.3 38,24.5 38,24.8 C38,25.7 37.8,26 37.3,26 C36.4,26 34.8,24.8 33,24.8 C31.2,24.8 29.6,26 28.7,26 C28.3,26 28,25.7 28,24.8 C28,24.5 28,24.2 28.1,24 L27,24 C24.8,24 22.8,25.2 21.8,27.1 C21.5,27 21.3,27 21,27 L19.8,27 C19.2,29.3 17.3,31 15,31 C12.7,31 10.8,29.3 10.2,27 L9,27 C5.7,27 3,29.7 3,33 L3,41 C3,42.1 3.9,43 5,43 L25,43 C26.1,43 27,42.1 27,41 L27,38 L43,38 C44.1,38 45,37.1 45,36 L45,30 C45,26.7 42.3,24 39,24 Z M26,37 L26,41 C26,41.5 25.5,42 25,42 L5,42 C4.4,42 4,41.6 4,41 L4,33 C4,30.2 6.2,28 9,28 L9.5,28 C10.4,30.4 12.6,32 15,32 C17.4,32 19.6,30.4 20.5,28 L21.3,28 C21.6,28 22,28.1 22.3,28.2 C24.4,28.8 26,30.7 26,33 L26,37 Z M44,36 C44,36.6 43.5,37 43,37 L27,37 L27,33 C27,30.3 25.2,28 22.8,27.3 C23.7,25.9 25.2,25 27,25 C27.1,26.8 28.2,27 28.7,27 C29.3,27 29.8,26.8 30.5,26.5 C31.3,26.2 32.1,25.8 33,25.8 C33.9,25.8 34.8,26.2 35.5,26.5 C36.2,26.8 36.7,27 37.3,27 C37.8,27 38.9,26.8 39,25 C41.8,25 44,27.2 44,30 L44,36 Z" id="Shape" fill="#445D6E"></path>
                <path d="M23,17 C23,12.6 19.4,9 15,9 C10.6,9 7,12.6 7,17 C7,18.3 4.6,22 5.2,23.1 C6.5,25.6 11.9,25 15,25 C17,25 22.6,25.2 24,24 C25.4,22.8 23,19.4 23,17 Z M15,24.9 C11.7,24.9 9,22.2 9,18.9 C9,16.3 10.6,14.2 12.8,13.3 C14,15.5 16.3,17 19,17 C19.6,17 20.1,16.9 20.6,16.8 C20.8,17.5 21,18.2 21,18.9 C21,22.2 18.3,24.9 15,24.9 L15,24.9 Z" id="Shape" fill="#445D6E"></path>
            </g>
        </g>
    </g>
</svg>