<?xml version="1.0" encoding="UTF-8"?>
<svg width="38px" height="38px" viewBox="0 0 38 38" version="1.1" xmlns="http://www.w3.org/2000/svg" xmlns:xlink="http://www.w3.org/1999/xlink">
    <!-- Generator: Sketch 42 (36781) - http://www.bohemiancoding.com/sketch -->
    <title>cost_saving_48</title>
    <desc>Created with Sketch.</desc>
    <defs></defs>
    <g id="fisher" stroke="none" stroke-width="1" fill="none" fill-rule="evenodd">
        <g id="Enterprise-Edition@2x" transform="translate(-381.000000, -4755.000000)" fill="#445D6E">
            <g id="cost_saving_48" transform="translate(381.000000, 4755.000000)">
                <g id="Group">
                    <g>
                        <path d="M19,38 C29.493,38 38,29.493 38,19 C38,8.507 29.493,0 19,0 C8.507,0 0,8.507 0,19 C0,29.493 8.507,38 19,38 Z M19,36 C9.611,36 2,28.389 2,19 C2,9.611 9.611,2 19,2 C28.389,2 36,9.611 36,19 C36,28.389 28.389,36 19,36 Z" id="Shape"></path>
                        <path d="M14.004,23.52 C14.46,24.912 15.756,26.976 18.684,27.264 L18.684,29.064 L20.46,29.064 L20.46,27.24 C23.148,26.856 24.78,24.888 24.78,22.392 C24.78,17.112 17.172,17.712 17.172,14.4 C17.172,13.248 18.012,12.336 19.5,12.336 C21.156,12.336 21.924,13.488 22.308,14.304 L24.516,13.32 C24.132,12.264 23.004,10.344 20.46,9.96 L20.46,8.616 L18.684,8.616 L18.684,9.96 C16.092,10.272 14.508,12.072 14.508,14.424 C14.508,19.824 22.068,19.032 22.068,22.584 C22.068,24 21.06,24.84 19.548,24.84 C17.7,24.84 16.716,23.664 16.26,22.464 L14.004,23.52 L14.004,23.52 Z" id="Shape"></path>
                    </g>
                </g>
            </g>
        </g>
    </g>
</svg>