<?xml version="1.0" encoding="utf-8"?>
<svg version="1.1" id="Layer_1" xmlns="http://www.w3.org/2000/svg" xmlns:xlink="http://www.w3.org/1999/xlink" x="0px" y="0px"
	 viewBox="0 0 759.8 75.9" style="enable-background:new 0 0 759.8 75.9;" xml:space="preserve" preserveAspectRatio="xMinYMid">
<style type="text/css">
	.st0{fill:#3FAE2A;}
	.st1{fill:#263746;}
</style>
<g>
	<g>
		<path class="st0" d="M329.1,12.2c0-0.5,0.4-1,0.9-1h11.2c9.7,0,17.6,7.9,17.6,17.5c0,9.7-7.9,17.6-17.6,17.6H330
			c-0.5,0-0.9-0.5-0.9-1V12.2z M340.4,42.9c8.2,0,14.2-5.9,14.2-14.2c0-8.2-6-14.1-14.2-14.1h-7.5v28.3H340.4z"/>
		<path class="st0" d="M382,10.7c10,0,18.1,8.1,18.1,18.1s-8,18-18.1,18c-10,0-18-8-18-18S372,10.7,382,10.7z M382,43.3
			c8,0,14.6-6.5,14.6-14.5S390,14.2,382,14.2s-14.5,6.6-14.5,14.6S374.1,43.3,382,43.3z"/>
		<path class="st0" d="M423.3,10.7c5.1,0,8.7,1.8,12.1,4.7c0.4,0.4,0.5,1,0,1.4l-1.4,1.4c-0.4,0.5-0.8,0.5-1.3,0
			c-2.6-2.3-6.2-3.8-9.6-3.8c-7.9,0-14,6.7-14,14.5c0,7.7,6.1,14.4,14,14.4c4.4,0,6.9-1.8,9.6-3.8c0.5-0.4,0.9-0.4,1.2-0.2l1.5,1.4
			c0.4,0.3,0.3,1,0,1.4c-3.4,3.3-7.7,4.9-12.2,4.9c-10,0-18.1-8-18.1-18C405.2,18.8,413.3,10.7,423.3,10.7z"/>
		<path class="st0" d="M442.8,12.2c0-0.5,0.5-1,1-1h1.9c0.6,0,1,0.5,1,1v20.9c0,5.7,3.6,10.2,9.4,10.2c5.9,0,9.5-4.4,9.5-10.1v-21
			c0-0.5,0.4-1,1-1h1.9c0.5,0,1,0.5,1,1v21.2c0,7.6-5.4,13.5-13.3,13.5S443,41.1,443,33.4V12.2H442.8z"/>
		<path class="st0" d="M483.1,11.4c0.1-0.4,0.5-0.7,0.9-0.7h0.8c0.4,0,0.8,0.3,0.9,0.6l9.9,27.7c0.1,0,0.2,0,0.3,0l9.8-27.7
			c0.1-0.3,0.5-0.6,0.9-0.6h0.8c0.4,0,0.8,0.3,0.9,0.7l6.5,33.7c0.2,0.7-0.2,1.2-0.9,1.2h-2c-0.4,0-0.8-0.4-0.9-0.7l-4.5-25.8h-0.2
			L497,46.3c-0.1,0.3-0.6,0.6-0.9,0.6h-0.9c-0.3,0-0.8-0.3-0.9-0.6L485,19.8c-0.1,0-0.2,0-0.2,0l-4.4,25.8c0,0.4-0.5,0.7-0.9,0.7h-2
			c-0.8,0-1.1-0.5-0.9-1.2L483.1,11.4z"/>
		<path class="st0" d="M522.4,12.2c0-0.5,0.4-1,1-1h19.8c0.6,0,1,0.5,1,1v1.5c0,0.5-0.4,1-1,1h-16.9v12.2h14.4c0.5,0,1,0.5,1,1v1.5
			c0,0.6-0.5,1-1,1h-14.4V43h16.9c0.6,0,1,0.5,1,1v1.5c0,0.5-0.4,1-1,1h-19.8c-0.6,0-1-0.5-1-1V12.2z"/>
		<path class="st0" d="M552.1,11.6c0-0.5,0.5-0.9,1-0.9h1.3L577,38.9c0,0,0,0,0.1,0V12.2c0-0.5,0.4-1,1-1h1.8c0.5,0,1,0.5,1,1V46
			c0,0.5-0.5,0.9-1,0.9H579l-23-28.8l0,0v27.3c0,0.5-0.4,1-1,1h-1.8c-0.5,0-1-0.5-1-1L552.1,11.6L552.1,11.6z"/>
		<path class="st0" d="M596,14.6h-8.7c-0.6,0-1-0.5-1-1v-1.5c0-0.5,0.4-1,1-1h21.3c0.6,0,1,0.5,1,1v1.5c0,0.5-0.4,1-1,1h-8.7v30.8
			c0,0.5-0.5,1-1,1H597c-0.5,0-1-0.5-1-1L596,14.6L596,14.6z"/>
		<path class="st0" d="M608.2,45l15.3-33.8c0.2-0.3,0.4-0.6,0.9-0.6h0.5c0.5,0,0.7,0.3,0.9,0.6L640.9,45c0.3,0.7-0.1,1.3-0.9,1.3h-2
			c-0.5,0-0.8-0.3-0.9-0.6l-3.7-8.3h-17.8l-3.7,8.3c-0.1,0.3-0.4,0.6-0.9,0.6h-2C608.3,46.3,607.9,45.7,608.2,45z M632.1,34.4
			c-2.5-5.5-4.9-11-7.3-16.5h-0.4L617,34.4H632.1z"/>
		<path class="st0" d="M649.3,14.6h-8.7c-0.6,0-1-0.5-1-1v-1.5c0-0.5,0.4-1,1-1h21.3c0.6,0,1,0.5,1,1v1.5c0,0.5-0.4,1-1,1h-8.7v30.8
			c0,0.5-0.5,1-1,1h-1.9c-0.5,0-1-0.5-1-1L649.3,14.6L649.3,14.6z"/>
		<path class="st0" d="M668.4,12.2c0-0.5,0.5-1,1-1h2c0.5,0,1,0.5,1,1v33.2c0,0.5-0.5,1-1,1h-2c-0.5,0-1-0.5-1-1V12.2z"/>
		<path class="st0" d="M698,10.7c10,0,18.1,8.1,18.1,18.1s-8,18-18.1,18s-18-8-18-18S687.9,10.7,698,10.7z M698,43.3
			c8,0,14.6-6.5,14.6-14.5S706,14.2,698,14.2s-14.5,6.6-14.5,14.6S690,43.3,698,43.3z"/>
		<path class="st0" d="M723.7,11.6c0-0.5,0.5-0.9,1-0.9h1.3l22.6,28.2c0.1,0,0.1,0,0.1,0V12.2c0-0.5,0.4-1,1-1h1.8c0.5,0,1,0.5,1,1
			V46c0,0.5-0.5,0.9-1,0.9h-0.9l-23-28.8h-0.1v27.3c0,0.5-0.4,1-1,1h-1.8c-0.5,0-1-0.5-1-1L723.7,11.6L723.7,11.6z"/>
	</g>
	<g>
		<g>
			<g>
				<path class="st0" d="M27.9,8.2c-0.2-0.3-0.4-0.6-0.9-0.6h-0.5c-0.5,0-0.8,0.3-0.9,0.6L8.6,45c-0.3,0.7,0.1,1.4,0.9,1.4h4.8
					c0.9,0,1.4-0.5,1.6-1.1l2.7-5.9H35l2.7,5.9c0.4,0.8,0.8,1.1,1.6,1.1h4.8c0.8,0,1.3-0.7,0.9-1.4L27.9,8.2z M21.1,33.4l5.4-12h0.2
					l5.5,12H21.1z"/>
			</g>
		</g>
		<g>
			<g>
				<path class="st0" d="M80,8.2h-5c-0.6,0-1,0.5-1,1v22.6h-0.1L51.1,7.6h-1.4c-0.5,0-1,0.4-1,1v36.8c0,0.5,0.5,1,1,1h5
					c0.6,0,1-0.5,1-1V21.9h0.1L78.7,47H80c0.5,0,1-0.4,1-1V9.2C81.1,8.7,80.6,8.2,80,8.2z"/>
			</g>
		</g>
		<g>
			<g>
				<path class="st0" d="M104.6,8.2c-0.2-0.3-0.4-0.6-0.9-0.6h-0.5c-0.5,0-0.8,0.3-0.9,0.6L85.3,45c-0.3,0.7,0.1,1.4,0.9,1.4H91
					c0.9,0,1.4-0.5,1.6-1.1l2.7-5.9h16.4l2.7,5.9c0.4,0.8,0.8,1.1,1.6,1.1h4.8c0.8,0,1.3-0.7,0.9-1.4L104.6,8.2z M97.8,33.4l5.4-12
					h0.2l5.5,12H97.8z"/>
			</g>
		</g>
		<g>
			<g>
				<path class="st0" d="M151.4,36.7c-0.3-0.3-0.9-0.4-1.4,0c-2.3,1.9-5.1,3.1-8.4,3.1c-7,0-12.3-5.8-12.3-12.6
					c0-6.9,5.2-12.8,12.2-12.8c3.1,0,6.1,1.2,8.4,3.2c0.4,0.4,1,0.4,1.4,0l3.3-3.4c0.4-0.4,0.4-1.1-0.1-1.5
					c-3.7-3.3-7.7-5.1-13.2-5.1c-10.9,0-19.8,8.8-19.8,19.8c0,10.9,8.8,19.6,19.8,19.6c4.9,0,9.6-1.7,13.3-5.3
					c0.4-0.4,0.5-1.1,0.1-1.5L151.4,36.7z"/>
			</g>
		</g>
		<g>
			<g>
				<path class="st0" d="M177.3,7.6c-10.9,0-19.6,8.8-19.6,19.8c0,10.9,8.7,19.6,19.6,19.6S197,38.3,197,27.4
					C197,16.4,188.2,7.6,177.3,7.6z M177.3,39.9c-6.9,0-12.5-5.6-12.5-12.5s5.6-12.6,12.5-12.6s12.6,5.7,12.6,12.6
					C189.8,34.3,184.2,39.9,177.3,39.9z"/>
			</g>
		</g>
		<g>
			<g>
				<path class="st0" d="M234.3,8.2h-5c-0.6,0-1,0.5-1,1v22.6h-0.1L205.4,7.6H204c-0.5,0-1,0.4-1,1v36.8c0,0.5,0.5,1,1,1h5
					c0.6,0,1-0.5,1-1V21.9h0.1L233,47h1.3c0.5,0,1-0.4,1-1V9.2C235.3,8.7,234.8,8.2,234.3,8.2z"/>
			</g>
		</g>
		<g>
			<g>
				<path class="st0" d="M256.2,8.2h-13c-0.5,0-1,0.5-1,1v36.2c0,0.5,0.4,1,1,1h13c10.6,0,19.2-8.6,19.2-19.2
					C275.4,16.8,266.8,8.2,256.2,8.2z M255.6,39.8h-6.3v-25h6.2c7.1,0,12.3,5.4,12.3,12.5C267.9,34.4,262.7,39.8,255.6,39.8z"/>
			</g>
		</g>
		<g>
			<g>
				<path class="st0" d="M312,45.1L295.1,8.3c-0.2-0.3-0.4-0.6-0.9-0.6h-0.5c-0.5,0-0.8,0.3-0.9,0.6l-17,36.8
					c-0.3,0.7,0.1,1.4,0.9,1.4h4.8c0.9,0,1.4-0.5,1.6-1.1l2.7-5.9h16.4l2.7,5.9c0.4,0.8,0.8,1.1,1.6,1.1h4.8
					C311.9,46.5,312.3,45.8,312,45.1z M288.4,33.4l5.4-12h0.2l5.5,12H288.4z"/>
			</g>
		</g>
		<g>
			<g>
				<g>
					<path class="st0" d="M307.3,13h0.3c0.1,0,0.2-0.1,0.2-0.2v-1h0.6l0.4,1.1c0,0.1,0.1,0.1,0.2,0.1h0.4c0.1,0,0.2-0.1,0.2-0.2
						c-0.2-0.3-0.3-0.7-0.5-1c0.3-0.1,0.7-0.4,0.7-1c0-0.7-0.5-1.1-1.1-1.1h-1.3c-0.1,0-0.2,0.1-0.2,0.2v2.9
						C307.2,12.9,307.2,13,307.3,13z M307.8,10.3h0.8c0.3,0,0.4,0.2,0.4,0.4s-0.2,0.4-0.4,0.4h-0.8V10.3z"/>
				</g>
			</g>
			<g>
				<g>
					<path class="st0" d="M308.3,14.6c1.8,0,3.2-1.4,3.2-3.2s-1.5-3.2-3.2-3.2c-1.8,0-3.2,1.5-3.2,3.2S306.5,14.6,308.3,14.6z
						 M308.3,8.7c1.4,0,2.6,1.2,2.6,2.6s-1.2,2.6-2.6,2.6s-2.6-1.2-2.6-2.6S306.9,8.7,308.3,8.7z"/>
				</g>
			</g>
		</g>
	</g>
	<g>
		<path class="st1" d="M12.8,52.8c1.9,0,3.3,0.4,4.4,1.1c1,0.7,1.5,1.8,1.5,3.2c0,0.8-0.1,1.4-0.4,2c-0.3,0.5-0.7,1-1.2,1.3
			c-0.5,0.3-1.2,0.6-1.9,0.7c-0.7,0.2-1.6,0.2-2.5,0.2h-1.5v5H9.3V53.1c0.5-0.1,1.1-0.2,1.8-0.3C11.7,52.8,12.3,52.8,12.8,52.8z
			 M13,54.4c-0.8,0-1.4,0-1.8,0.1v5.3h1.4c0.6,0,1.2,0,1.7-0.1c0.5-0.1,0.9-0.2,1.3-0.4c0.4-0.2,0.6-0.5,0.8-0.8s0.3-0.8,0.3-1.3
			s-0.1-0.9-0.3-1.3c-0.2-0.3-0.5-0.6-0.8-0.8c-0.3-0.2-0.7-0.3-1.2-0.4C14,54.5,13.5,54.4,13,54.4z"/>
		<path class="st1" d="M29.8,61.4c0,0.8-0.1,1.5-0.3,2.2c-0.2,0.7-0.6,1.2-1,1.7c-0.4,0.5-0.9,0.8-1.5,1.1c-0.6,0.2-1.2,0.4-1.9,0.4
			c-0.7,0-1.3-0.1-1.9-0.4c-0.6-0.2-1.1-0.6-1.5-1.1c-0.4-0.5-0.7-1-1-1.7c-0.3-0.7-0.3-1.4-0.3-2.2s0.1-1.5,0.3-2.1
			c0.2-0.6,0.6-1.2,1-1.7c0.4-0.5,0.9-0.8,1.5-1.1c0.6-0.2,1.2-0.4,1.9-0.4c0.7,0,1.3,0.1,1.9,0.4c0.6,0.2,1.1,0.6,1.5,1.1
			c0.4,0.5,0.7,1,1,1.7C29.7,59.9,29.8,60.6,29.8,61.4z M28,61.4c0-1.1-0.3-2-0.8-2.7c-0.5-0.7-1.2-1-2.1-1c-0.9,0-1.6,0.3-2.1,1
			s-0.8,1.6-0.8,2.7c0,1.1,0.3,2,0.8,2.7c0.5,0.7,1.2,1,2.1,1c0.9,0,1.6-0.3,2.1-1C27.7,63.4,28,62.5,28,61.4z"/>
		<path class="st1" d="M40.8,66.5c-0.4-0.9-0.7-2-1.1-3.2c-0.4-1.2-0.8-2.4-1.1-3.7c-0.3,1.3-0.7,2.5-1.1,3.7
			c-0.4,1.2-0.8,2.2-1.1,3.2h-1.6c-0.6-1.3-1.2-2.8-1.7-4.6c-0.6-1.7-1.1-3.5-1.6-5.6h1.9c0.1,0.6,0.3,1.3,0.5,2
			c0.2,0.7,0.4,1.4,0.6,2.1c0.2,0.7,0.4,1.4,0.6,2c0.2,0.6,0.4,1.2,0.6,1.7c0.2-0.6,0.4-1.2,0.6-1.9c0.2-0.7,0.4-1.4,0.6-2
			c0.2-0.7,0.4-1.4,0.5-2c0.1-0.6,0.3-1.3,0.5-1.9h1.5c0.1,0.6,0.3,1.2,0.4,1.9c0.2,0.7,0.3,1.3,0.5,2c0.2,0.7,0.4,1.4,0.6,2
			c0.2,0.7,0.4,1.3,0.6,1.9c0.2-0.5,0.4-1.1,0.6-1.7s0.4-1.3,0.6-2c0.2-0.7,0.4-1.4,0.6-2.1s0.3-1.4,0.5-2h1.8c-0.5,2-1,3.8-1.6,5.6
			s-1.1,3.2-1.7,4.6H40.8z"/>
		<path class="st1" d="M47.3,61.4c0-0.9,0.1-1.7,0.4-2.3c0.3-0.7,0.6-1.2,1-1.6c0.4-0.4,0.9-0.8,1.5-1s1.1-0.3,1.7-0.3
			c1.3,0,2.4,0.4,3.1,1.3c0.7,0.9,1.1,2.1,1.1,3.8c0,0.1,0,0.2,0,0.3s0,0.2,0,0.3h-7c0.1,1,0.4,1.8,0.9,2.4c0.5,0.5,1.3,0.8,2.5,0.8
			c0.6,0,1.2-0.1,1.6-0.2c0.4-0.1,0.8-0.2,1-0.3l0.3,1.5c-0.2,0.1-0.6,0.2-1.1,0.4c-0.5,0.1-1.2,0.2-1.9,0.2c-0.9,0-1.6-0.1-2.3-0.4
			c-0.6-0.3-1.2-0.6-1.6-1.1c-0.4-0.5-0.7-1-0.9-1.6C47.4,62.8,47.3,62.1,47.3,61.4z M54.3,60.4c0-0.8-0.2-1.5-0.6-2s-1-0.8-1.7-0.8
			c-0.4,0-0.8,0.1-1.1,0.2c-0.3,0.2-0.6,0.4-0.8,0.6s-0.4,0.6-0.5,0.9c-0.1,0.3-0.2,0.7-0.2,1h5V60.4z"/>
		<path class="st1" d="M62.9,56c0.2,0,0.3,0,0.5,0s0.4,0,0.6,0.1c0.2,0,0.4,0.1,0.5,0.1c0.2,0,0.3,0.1,0.4,0.1L64.6,58
			c-0.1-0.1-0.4-0.1-0.7-0.2c-0.3-0.1-0.7-0.1-1.3-0.1c-0.3,0-0.7,0-1,0.1c-0.3,0.1-0.5,0.1-0.6,0.1v8.5h-1.8v-9.7
			c0.4-0.2,0.9-0.3,1.6-0.4C61.4,56.1,62.1,56,62.9,56z"/>
		<path class="st1" d="M66.5,61.4c0-0.9,0.1-1.7,0.4-2.3c0.3-0.7,0.6-1.2,1-1.6c0.4-0.4,0.9-0.8,1.5-1s1.1-0.3,1.7-0.3
			c1.3,0,2.4,0.4,3.1,1.3c0.7,0.9,1.1,2.1,1.1,3.8c0,0.1,0,0.2,0,0.3s0,0.2,0,0.3h-7c0.1,1,0.4,1.8,0.9,2.4c0.5,0.5,1.3,0.8,2.5,0.8
			c0.6,0,1.2-0.1,1.6-0.2c0.4-0.1,0.8-0.2,1-0.3l0.3,1.5c-0.2,0.1-0.6,0.2-1.1,0.4c-0.5,0.1-1.2,0.2-1.9,0.2c-0.9,0-1.6-0.1-2.3-0.4
			c-0.6-0.3-1.2-0.6-1.6-1.1c-0.4-0.5-0.7-1-0.9-1.6C66.6,62.8,66.5,62.1,66.5,61.4z M73.4,60.4c0-0.8-0.2-1.5-0.6-2s-1-0.8-1.7-0.8
			c-0.4,0-0.8,0.1-1.1,0.2c-0.3,0.2-0.6,0.4-0.8,0.6s-0.4,0.6-0.5,0.9c-0.1,0.3-0.2,0.7-0.2,1h5V60.4z"/>
		<path class="st1" d="M84.8,51.6l1.8-0.3v14.8c-0.4,0.1-0.9,0.2-1.6,0.3c-0.7,0.1-1.4,0.2-2.2,0.2c-0.8,0-1.5-0.1-2.1-0.4
			c-0.6-0.2-1.1-0.6-1.6-1c-0.4-0.4-0.8-1-1-1.6c-0.2-0.6-0.4-1.4-0.4-2.2c0-0.8,0.1-1.5,0.3-2.1c0.2-0.6,0.5-1.2,0.9-1.7
			c0.4-0.5,0.9-0.8,1.4-1.1c0.6-0.3,1.2-0.4,1.9-0.4c0.6,0,1.1,0.1,1.5,0.2c0.4,0.2,0.8,0.3,1,0.4v-5H84.8z M84.8,58.5
			c-0.2-0.2-0.5-0.4-0.9-0.5c-0.4-0.2-0.9-0.2-1.3-0.2c-0.5,0-1,0.1-1.3,0.3c-0.4,0.2-0.7,0.4-0.9,0.8s-0.5,0.6-0.6,1
			c-0.1,0.5-0.2,0.9-0.2,1.4c0,1.2,0.3,2.1,0.9,2.7c0.6,0.6,1.3,1,2.3,1c0.5,0,0.9,0,1.2-0.1c0.3-0.1,0.6-0.1,0.8-0.1
			C84.8,64.8,84.8,58.5,84.8,58.5z"/>
		<path class="st1" d="M96.7,56.7c0.2-0.1,0.5-0.3,1-0.4c0.4-0.2,1-0.2,1.5-0.2c0.7,0,1.4,0.1,1.9,0.4c0.6,0.3,1,0.6,1.4,1.1
			c0.4,0.5,0.7,1,0.9,1.7c0.2,0.6,0.3,1.3,0.3,2.1s-0.1,1.5-0.4,2.2c-0.2,0.6-0.6,1.2-1,1.6s-1,0.8-1.6,1s-1.3,0.4-2.1,0.4
			c-0.8,0-1.6-0.1-2.2-0.2c-0.6-0.1-1.2-0.2-1.6-0.3V51.6l1.8-0.3v5.5H96.7z M96.7,64.8c0.2,0.1,0.4,0.1,0.8,0.1
			c0.3,0,0.7,0.1,1.2,0.1c1,0,1.7-0.3,2.3-1c0.6-0.6,0.9-1.5,0.9-2.7c0-0.5-0.1-1-0.2-1.4c-0.1-0.4-0.3-0.8-0.5-1.2
			c-0.2-0.3-0.5-0.6-0.9-0.8c-0.4-0.2-0.8-0.3-1.3-0.3s-0.9,0.1-1.3,0.2c-0.4,0.1-0.7,0.3-0.9,0.5v6.6H96.7z"/>
		<path class="st1" d="M105.2,68.3c0.1,0.1,0.3,0.1,0.5,0.2c0.2,0.1,0.4,0.1,0.7,0.1c0.7,0,1.3-0.2,1.7-0.5c0.4-0.3,0.8-0.8,1.1-1.5
			c-0.8-1.5-1.6-3.2-2.3-5s-1.3-3.5-1.7-5.3h1.9c0.1,0.6,0.3,1.2,0.5,1.9c0.2,0.7,0.4,1.4,0.7,2.1c0.2,0.7,0.5,1.4,0.8,2.1
			c0.3,0.7,0.6,1.4,0.9,2c0.5-1.3,0.9-2.7,1.3-4c0.4-1.3,0.7-2.7,1-4.1h1.8c-0.5,1.9-1,3.7-1.5,5.5c-0.6,1.7-1.2,3.4-1.8,5
			c-0.3,0.6-0.5,1.1-0.8,1.5c-0.3,0.4-0.6,0.8-0.9,1c-0.3,0.3-0.7,0.5-1.1,0.6c-0.4,0.1-0.9,0.2-1.4,0.2c-0.1,0-0.3,0-0.4,0
			c-0.2,0-0.3,0-0.5-0.1c-0.2-0.1-0.3-0.1-0.4-0.1c-0.1,0-0.2-0.1-0.3-0.1L105.2,68.3z"/>
		<path class="st1" d="M127.3,66.7c-1,0-1.9-0.2-2.7-0.5c-0.8-0.3-1.5-0.8-2-1.4c-0.5-0.6-1-1.3-1.3-2.2c-0.3-0.9-0.4-1.8-0.4-3
			c0-1.2,0.2-2.1,0.5-3s0.8-1.6,1.4-2.2s1.3-1,2.1-1.4c0.8-0.3,1.6-0.5,2.6-0.5c0.6,0,1.1,0,1.5,0.1c0.4,0.1,0.8,0.2,1.2,0.3
			s0.6,0.2,0.8,0.3c0.2,0.1,0.4,0.2,0.5,0.3l-0.7,2c-0.3-0.2-0.7-0.4-1.3-0.5c-0.6-0.2-1.2-0.3-1.9-0.3c-0.6,0-1.1,0.1-1.6,0.3
			c-0.5,0.2-0.9,0.5-1.3,0.9s-0.7,0.9-0.9,1.5c-0.2,0.6-0.3,1.3-0.3,2.1c0,0.7,0.1,1.4,0.2,1.9c0.2,0.6,0.4,1.1,0.7,1.5
			c0.3,0.4,0.8,0.8,1.3,1c0.5,0.2,1.1,0.4,1.8,0.4c0.9,0,1.6-0.1,2.1-0.3c0.5-0.2,1-0.3,1.3-0.5l0.7,2c-0.2,0.1-0.4,0.2-0.6,0.3
			c-0.2,0.1-0.6,0.2-0.9,0.3c-0.4,0.1-0.8,0.2-1.2,0.2C128.3,66.7,127.9,66.7,127.3,66.7z"/>
		<path class="st1" d="M142.9,61.3c0,0.8-0.1,1.5-0.3,2.2c-0.2,0.7-0.6,1.2-1,1.7c-0.4,0.5-0.9,0.8-1.5,1.1c-0.6,0.3-1.3,0.4-2,0.4
			s-1.4-0.1-2-0.4c-0.6-0.3-1.1-0.6-1.5-1.1c-0.4-0.5-0.8-1-1-1.7c-0.2-0.7-0.4-1.4-0.4-2.2c0-0.8,0.1-1.5,0.4-2.2
			c0.2-0.6,0.6-1.2,1-1.7c0.4-0.5,0.9-0.8,1.5-1.1c0.6-0.3,1.2-0.4,1.9-0.4s1.4,0.1,2,0.4c0.6,0.2,1.1,0.6,1.5,1.1
			c0.4,0.5,0.8,1,1,1.7C142.8,59.8,142.9,60.5,142.9,61.3z M140.5,61.3c0-1-0.2-1.8-0.6-2.4c-0.4-0.6-1-0.9-1.8-0.9
			s-1.4,0.3-1.8,0.9c-0.4,0.6-0.6,1.4-0.6,2.4c0,1,0.2,1.8,0.6,2.4c0.4,0.6,1,0.9,1.8,0.9s1.4-0.3,1.8-0.9
			C140.3,63.1,140.5,62.3,140.5,61.3z"/>
		<path class="st1" d="M145.7,56.5c0.4-0.1,1-0.3,1.8-0.4s1.5-0.2,2.4-0.2c0.8,0,1.5,0.1,2.1,0.3c0.6,0.2,1,0.5,1.3,0.9
			s0.6,0.9,0.7,1.5s0.2,1.2,0.2,1.9v5.8H152V61c0-0.5,0-1-0.1-1.4c-0.1-0.4-0.2-0.7-0.3-0.9c-0.2-0.2-0.4-0.4-0.7-0.5
			s-0.6-0.2-1-0.2c-0.3,0-0.6,0-0.9,0.1c-0.3,0-0.6,0.1-0.7,0.1v8.2h-2.3v-9.8H145.7z"/>
		<path class="st1" d="M157.3,53.5l2.3-0.4v3h3.6v1.9h-3.6v4.1c0,0.8,0.1,1.4,0.4,1.7c0.3,0.3,0.7,0.5,1.3,0.5c0.4,0,0.8,0,1.1-0.1
			c0.3-0.1,0.6-0.2,0.8-0.3l0.4,1.8c-0.3,0.1-0.6,0.2-1.1,0.4c-0.4,0.1-0.9,0.2-1.5,0.2c-0.7,0-1.3-0.1-1.8-0.3
			c-0.5-0.2-0.9-0.5-1.1-0.8c-0.3-0.4-0.5-0.8-0.6-1.3c-0.1-0.5-0.2-1.1-0.2-1.8L157.3,53.5L157.3,53.5z"/>
		<path class="st1" d="M168.5,53.2c0,0.4-0.1,0.8-0.4,1c-0.3,0.3-0.6,0.4-1,0.4c-0.4,0-0.7-0.1-1-0.4s-0.4-0.6-0.4-1
			s0.1-0.8,0.4-1.1s0.6-0.4,1-0.4c0.4,0,0.7,0.1,1,0.4C168.3,52.4,168.5,52.8,168.5,53.2z M168.2,66.5h-2.3V56.2h2.3V66.5z"/>
		<path class="st1" d="M171.6,56.5c0.4-0.1,1-0.3,1.8-0.4c0.8-0.1,1.5-0.2,2.4-0.2c0.8,0,1.5,0.1,2.1,0.3c0.6,0.2,1,0.5,1.3,0.9
			c0.3,0.4,0.6,0.9,0.7,1.5c0.1,0.6,0.2,1.2,0.2,1.9v5.8h-2.3V61c0-0.5,0-1-0.1-1.4c-0.1-0.4-0.2-0.7-0.3-0.9
			c-0.2-0.2-0.4-0.4-0.7-0.5s-0.6-0.2-1-0.2c-0.3,0-0.6,0-0.9,0.1c-0.3,0-0.6,0.1-0.7,0.1v8.2h-2.3v-9.8H171.6z"/>
		<path class="st1" d="M191.7,66.2c-0.4,0.1-1,0.2-1.8,0.4c-0.7,0.1-1.5,0.2-2.4,0.2c-0.8,0-1.5-0.1-2-0.3c-0.5-0.2-1-0.6-1.3-1
			s-0.6-0.9-0.7-1.5c-0.1-0.6-0.2-1.2-0.2-1.9v-5.7h2.3v5.4c0,1.1,0.2,1.8,0.5,2.3c0.3,0.5,0.9,0.7,1.6,0.7c0.3,0,0.6,0,0.9,0
			s0.5-0.1,0.7-0.1v-8.2h2.3v9.7H191.7z"/>
		<path class="st1" d="M203.3,66.2c-0.4,0.1-1,0.2-1.8,0.4c-0.7,0.1-1.5,0.2-2.4,0.2c-0.8,0-1.5-0.1-2-0.3c-0.5-0.2-1-0.6-1.3-1
			s-0.6-0.9-0.7-1.5c-0.1-0.6-0.2-1.2-0.2-1.9v-5.7h2.3v5.4c0,1.1,0.2,1.8,0.5,2.3c0.3,0.5,0.9,0.7,1.6,0.7c0.3,0,0.6,0,0.9,0
			c0.3,0,0.5-0.1,0.7-0.1v-8.2h2.3v9.7H203.3z"/>
		<path class="st1" d="M212.5,61.1c0-1.1-0.1-1.8-0.4-2.3s-0.8-0.7-1.5-0.7c-0.3,0-0.5,0-0.8,0.1c-0.3,0.1-0.5,0.1-0.7,0.1v8.2h-2.3
			v-9.8c0.4-0.1,1-0.3,1.8-0.4c0.8-0.1,1.5-0.2,2.3-0.2c0.7,0,1.3,0.1,1.7,0.3s0.8,0.4,1.1,0.7c0.1-0.1,0.3-0.2,0.5-0.3
			c0.2-0.1,0.5-0.2,0.7-0.3c0.3-0.1,0.6-0.2,0.9-0.2c0.3-0.1,0.6-0.1,0.9-0.1c0.8,0,1.4,0.1,1.9,0.3c0.5,0.2,0.9,0.5,1.2,0.9
			c0.3,0.4,0.5,0.9,0.6,1.5s0.2,1.2,0.2,1.9v5.8h-2.3v-5.4c0-1.1-0.1-1.8-0.4-2.3s-0.8-0.7-1.5-0.7c-0.4,0-0.7,0.1-1.1,0.2
			c-0.3,0.1-0.6,0.2-0.8,0.4c0.1,0.3,0.2,0.7,0.2,1s0.1,0.7,0.1,1.2v5.7h-2.3L212.5,61.1L212.5,61.1z"/>
		<path class="st1" d="M237.8,66.5c-0.2-0.5-0.4-1-0.6-1.6c-0.2-0.5-0.4-1-0.6-1.6H231c-0.2,0.5-0.4,1.1-0.5,1.6s-0.4,1-0.5,1.5
			h-2.5c0.5-1.4,1-2.7,1.4-3.9c0.4-1.2,0.9-2.3,1.3-3.4s0.9-2.1,1.3-3.1c0.4-1,0.9-1.9,1.3-2.9h2.3c0.4,0.9,0.9,1.9,1.3,2.9
			c0.4,1,0.9,2,1.3,3.1c0.4,1.1,0.9,2.2,1.3,3.4c0.4,1.2,0.9,2.5,1.4,3.9h-2.6V66.5z M233.8,55.5c-0.3,0.7-0.6,1.5-1,2.5
			c-0.4,1-0.8,2-1.2,3.2h4.5c-0.4-1.1-0.8-2.2-1.2-3.2C234.5,57,234.1,56.2,233.8,55.5z"/>
		<path class="st1" d="M242.4,56.5c0.4-0.1,1-0.3,1.8-0.4s1.5-0.2,2.4-0.2c0.8,0,1.5,0.1,2.1,0.3c0.6,0.2,1,0.5,1.3,0.9
			s0.6,0.9,0.7,1.5s0.2,1.2,0.2,1.9v5.8h-2.3V61c0-0.5,0-1-0.1-1.4s-0.2-0.7-0.3-0.9c-0.2-0.2-0.4-0.4-0.7-0.5
			c-0.3-0.1-0.6-0.2-1-0.2c-0.3,0-0.6,0-0.9,0.1c-0.3,0-0.6,0.1-0.7,0.1v8.2h-2.3v-9.8H242.4z"/>
		<path class="st1" d="M257.5,55.9c0.8,0,1.4,0.1,1.9,0.3c0.5,0.2,0.9,0.5,1.3,0.8c0.3,0.3,0.5,0.8,0.7,1.3s0.2,1,0.2,1.6v6.2
			c-0.4,0.1-0.9,0.2-1.6,0.3c-0.7,0.1-1.5,0.2-2.5,0.2c-0.6,0-1.2-0.1-1.7-0.2c-0.5-0.1-0.9-0.3-1.3-0.6c-0.4-0.3-0.6-0.6-0.8-1
			c-0.2-0.4-0.3-0.9-0.3-1.5c0-0.6,0.1-1.1,0.3-1.5c0.2-0.4,0.5-0.7,0.9-1c0.4-0.2,0.8-0.4,1.3-0.5c0.5-0.1,1-0.2,1.6-0.2
			c0.3,0,0.5,0,0.8,0s0.6,0.1,0.9,0.2v-0.4c0-0.3,0-0.5-0.1-0.8c-0.1-0.2-0.2-0.5-0.3-0.6c-0.2-0.2-0.4-0.3-0.6-0.4
			c-0.3-0.1-0.6-0.2-1-0.2c-0.5,0-1,0-1.5,0.1c-0.4,0.1-0.8,0.2-1.1,0.3l-0.3-1.9c0.3-0.1,0.7-0.2,1.3-0.3
			C256.3,56,256.9,55.9,257.5,55.9z M257.7,64.7c0.7,0,1.3,0,1.6-0.1V62c-0.1,0-0.3-0.1-0.6-0.1c-0.2,0-0.5-0.1-0.8-0.1
			c-0.3,0-0.5,0-0.8,0.1c-0.3,0-0.5,0.1-0.7,0.2c-0.2,0.1-0.4,0.2-0.5,0.4s-0.2,0.4-0.2,0.7c0,0.6,0.2,0.9,0.5,1.1
			C256.6,64.6,257.1,64.7,257.7,64.7z"/>
		<path class="st1" d="M268.4,66.7c-0.7,0-1.3-0.1-1.7-0.2c-0.5-0.1-0.8-0.3-1.1-0.6c-0.3-0.3-0.5-0.6-0.6-1s-0.2-0.8-0.2-1.3V51.7
			l2.3-0.4v11.6c0,0.3,0,0.5,0.1,0.7s0.1,0.4,0.2,0.5c0.1,0.1,0.3,0.2,0.5,0.3c0.2,0.1,0.5,0.1,0.8,0.2L268.4,66.7z"/>
		<path class="st1" d="M279.2,56.2c-1,3.8-2.2,7.4-3.6,10.5c-0.3,0.6-0.5,1.1-0.8,1.5s-0.6,0.8-0.9,1c-0.3,0.3-0.7,0.5-1.1,0.6
			c-0.4,0.1-0.9,0.2-1.4,0.2c-0.4,0-0.7,0-1.1-0.1c-0.4-0.1-0.6-0.2-0.8-0.2l0.4-1.9c0.5,0.2,0.9,0.3,1.4,0.3c0.6,0,1.1-0.1,1.4-0.4
			c0.3-0.3,0.6-0.7,0.9-1.3c-0.7-1.4-1.4-3-2.1-4.7c-0.7-1.7-1.3-3.4-1.8-5.4h2.5c0.1,0.5,0.3,1.1,0.5,1.8c0.2,0.6,0.4,1.3,0.6,1.9
			c0.2,0.6,0.5,1.3,0.7,1.9s0.5,1.2,0.7,1.8c0.4-1.1,0.8-2.4,1.1-3.6c0.4-1.3,0.7-2.5,1-3.7h2.4V56.2z"/>
		<path class="st1" d="M281.2,53.5l2.3-0.4v3h3.6v1.9h-3.6v4.1c0,0.8,0.1,1.4,0.4,1.7c0.3,0.3,0.7,0.5,1.3,0.5c0.4,0,0.8,0,1.1-0.1
			c0.3-0.1,0.6-0.2,0.8-0.3l0.4,1.8c-0.3,0.1-0.6,0.2-1.1,0.4c-0.4,0.1-0.9,0.2-1.5,0.2c-0.7,0-1.3-0.1-1.8-0.3
			c-0.5-0.2-0.9-0.5-1.1-0.8c-0.3-0.4-0.5-0.8-0.6-1.3c-0.1-0.5-0.2-1.1-0.2-1.8L281.2,53.5L281.2,53.5z"/>
		<path class="st1" d="M292.5,53.2c0,0.4-0.1,0.8-0.4,1c-0.3,0.3-0.6,0.4-1,0.4c-0.4,0-0.7-0.1-1-0.4s-0.4-0.6-0.4-1
			s0.1-0.8,0.4-1.1s0.6-0.4,1-0.4c0.4,0,0.7,0.1,1,0.4C292.4,52.4,292.5,52.8,292.5,53.2z M292.3,66.5h-2.3V56.2h2.3V66.5z"/>
		<path class="st1" d="M295,61.3c0-0.7,0.1-1.4,0.3-2.1c0.2-0.6,0.6-1.2,1-1.7c0.4-0.5,1-0.8,1.6-1.1c0.6-0.3,1.3-0.4,2.1-0.4
			c0.9,0,1.8,0.2,2.7,0.5l-0.5,1.9c-0.3-0.1-0.6-0.2-0.9-0.3s-0.7-0.1-1.1-0.1c-0.9,0-1.6,0.3-2.1,0.9c-0.5,0.6-0.7,1.4-0.7,2.4
			c0,1,0.2,1.8,0.7,2.4c0.4,0.6,1.2,0.9,2.3,0.9c0.4,0,0.8,0,1.2-0.1c0.4-0.1,0.7-0.2,1-0.3l0.3,1.9c-0.3,0.1-0.6,0.2-1.2,0.3
			c-0.5,0.1-1.1,0.2-1.6,0.2c-0.9,0-1.6-0.1-2.2-0.4c-0.6-0.3-1.2-0.6-1.6-1.1c-0.4-0.5-0.7-1-0.9-1.7C295.1,62.8,295,62.1,295,61.3
			z"/>
		<path class="st1" d="M307.7,64.7c0.6,0,1.1-0.1,1.3-0.2c0.3-0.1,0.4-0.4,0.4-0.8c0-0.3-0.2-0.6-0.5-0.8s-0.8-0.5-1.5-0.7
			c-0.4-0.2-0.8-0.3-1.2-0.5s-0.7-0.4-0.9-0.6c-0.3-0.2-0.5-0.5-0.6-0.8s-0.2-0.7-0.2-1.2c0-0.9,0.3-1.7,1-2.2s1.6-0.8,2.8-0.8
			c0.6,0,1.2,0.1,1.7,0.2s0.9,0.2,1.2,0.3l-0.4,1.9c-0.3-0.1-0.6-0.2-1-0.3c-0.4-0.1-0.9-0.1-1.4-0.1s-0.9,0.1-1.2,0.2
			c-0.3,0.2-0.4,0.4-0.4,0.7c0,0.2,0,0.3,0.1,0.4c0.1,0.1,0.2,0.2,0.3,0.4c0.1,0.1,0.3,0.2,0.6,0.3c0.2,0.1,0.5,0.2,0.8,0.3
			c0.6,0.2,1,0.4,1.4,0.6c0.4,0.2,0.7,0.4,1,0.7c0.3,0.2,0.4,0.5,0.5,0.9c0.1,0.3,0.2,0.7,0.2,1.2c0,1-0.4,1.7-1.1,2.2
			c-0.7,0.5-1.7,0.7-3.1,0.7c-0.9,0-1.6-0.1-2.1-0.2c-0.5-0.1-0.9-0.3-1.1-0.4l0.4-1.9c0.3,0.1,0.8,0.3,1.2,0.4
			C306.4,64.6,307,64.7,307.7,64.7z"/>
	</g>
</g>
</svg>
